# xmcd CD database file
#
# Track frame offsets:
#	150
#	17025
#	31942
#	43192
#	57081
#	76763
#	87141
#	98837
#	117743
#	130868
#	142008
#	157279
#	169760
#
# Disc length: 2326 seconds
#
# Revision: 0
# Processed by: cddbd v1.5.1PL0 Copyright (c) Steve Scherf et al.
# Submitted via: CDex 1.40Release
#
DISCID=ab09140d
DTITLE=Blue Prairie - The Cowboy Side Of Life
DYEAR=1900
DGENRE=Country
TTITLE0=Big Iron
TTITLE1=Full Circle 'Round
TTITLE2=Blowin' Like a Bandit
TTITLE3=O Bury Me Out on the Lone Prairie
TTITLE4=The Cowboy Side of Life
TTITLE5=This Workin' Just Ain't Workin' (Anymore)
TTITLE6=Red Prairie Rose
TTITLE7=Goodnight-Loving Trail
TTITLE8=My Blue-Eyed Senorita
TTITLE9=Blue Shadows on the Trail
TTITLE10=Lilly Dale
TTITLE11=The Cowboy's Wail
TTITLE12=Happy Trails
EXTD=ID3G: 2
EXTT0=
EXTT1=
EXTT2=
EXTT3=
EXTT4=
EXTT5=
EXTT6=
EXTT7=
EXTT8=
EXTT9=
EXTT10=
EXTT11=
EXTT12=
PLAYORDER=
